<?xml version="1.0" encoding="UTF-8"?>
<svg id="_レイヤー_1" data-name="レイヤー 1" xmlns="http://www.w3.org/2000/svg" viewBox="0 0 1147.45 1275.31">
  <defs>
    <style>
      .cls-1 {
        fill: #000000;
        stroke-width: 0px;
      }
    </style>
  </defs>
  <g>
    <polygon class="cls-1" points="1110.62 929.8 1085.6 886.17 1082.63 880.99 1076.66 880.99 49.32 880.99 43.35 880.99 40.38 886.17 15.36 929.8 6.51 945.24 24.3 945.24 1101.68 945.24 1119.47 945.24 1110.62 929.8"/>
    <path class="cls-1" d="M528.82,859.33h18.51l-9.92-15.62-27.24-42.89-3-4.72H167.69l43.73-74.93h252.84l-9.42-15.46-148.96-244.52-8.83-14.5-8.61,14.63L63.16,844l-9.02,15.33h474.68ZM247.95,657.93l49.73-86.16,55.53,86.16h-105.26Z"/>
    <polygon class="cls-1" points="566.46 844.88 575.53 859.9 584.28 844.7 765.65 529.48 768.7 524.2 765.54 518.98 739.77 476.29 730.7 461.26 721.95 476.48 575.04 731.98 391.73 432.03 574.83 138.37 643.27 257.94 535.45 439.35 532.15 444.9 535.69 450.3 561.77 490.14 570.82 503.98 579.3 489.78 714.53 263.35 717.64 258.14 714.62 252.89 578.16 15.25 569.41 0 560.33 15.06 316.25 419.91 313.03 425.26 316.25 430.6 566.46 844.88"/>
    <polygon class="cls-1" points="500.06 441.49 604.9 260.47 607.9 255.29 604.91 250.11 579.72 206.5 570.94 191.3 561.9 206.34 426.13 432.02 422.92 437.37 426.15 442.71 563.47 669.63 572.53 684.6 581.28 669.45 732.2 408.01 960.37 795.18 649.73 795.18 643.94 795.18 640.91 800.11 614.1 843.74 604.41 859.51 622.91 859.51 1054.06 859.51 1071.97 859.51 1063.02 843.99 1037.83 800.35 741.03 294.97 732.03 279.65 723.15 295.03 571.98 556.9 500.06 441.49"/>
  </g>
  <g>
    <g>
      <path class="cls-1" d="M417.26,1179.69l31.11,17.39h146.42l31.11-17.39v-34.77h-156.47v-26.08h125.37l31.11-17.39v-113.01h-208.63v191.24ZM469.41,1040.61h104.31v26.08h-104.31v-26.08Z"/>
      <polygon class="cls-1" points="651.96 1118.84 808.43 1118.84 808.43 1144.92 651.96 1144.92 651.96 1179.69 683.07 1197.08 829.49 1197.08 860.59 1179.69 860.59 1066.68 704.12 1066.68 704.12 1040.61 829.49 1040.61 860.59 1023.22 860.59 988.45 651.96 988.45 651.96 1118.84"/>
      <polygon class="cls-1" points="339.02 1144.92 321.63 1144.92 52.16 1144.92 52.16 988.45 0 988.45 0 1179.69 31.11 1197.08 391.18 1197.08 391.18 988.45 339.02 988.45 339.02 1144.92"/>
      <polygon class="cls-1" points="1036.3 1080.93 1113.9 988.45 1045.81 988.45 1008.56 1032.85 972.87 1075.38 938.83 1115.94 938.83 1005.83 907.72 988.45 886.67 988.45 886.67 1179.69 917.78 1197.08 938.84 1197.08 1000.63 1123.45 1087.23 1275.31 1147.45 1275.31 1036.3 1080.93"/>
    </g>
    <g>
      <path class="cls-1" d="M445.56,1213.04c-.24,1.48-.32,2.92-.32,5.43v14.18c0,8.27-4.91,12.9-13.62,12.9-4.43,0-8.11-1.36-10.31-3.76-2.04-2.2-3-5.19-3-9.19v-14.1c0-2.48-.08-4.03-.32-5.47h5.95c-.24,1.36-.32,2.88-.32,5.47v14.1c0,5.39,2.8,8.23,8.19,8.23s8.11-2.84,8.11-8.27v-14.06c0-2.56-.08-3.99-.32-5.47h5.95Z"/>
      <path class="cls-1" d="M449.23,1244.84c.24-1.72.32-2.96.32-5.19v-12.54c0-2.2-.08-3.56-.32-5.19h5.43v2.12c0,.6,0,.72-.08,1.72,2.44-3.12,4.55-4.23,8.15-4.23,3.08,0,5.35,1,6.79,2.96.96,1.32,1.36,2.92,1.36,5.59v9.59c0,2.2.08,3.72.32,5.19h-5.79c.2-1.8.28-3.16.28-5.19v-8.87c0-1.68-.2-2.76-.68-3.51-.64-1.04-1.84-1.64-3.36-1.64-2.88,0-5.23,2-6.99,5.95v8.07c0,1.96.08,3.48.32,5.19h-5.75Z"/>
      <path class="cls-1" d="M481.19,1213.04v5.07h-5.87v-5.07h5.87ZM481.14,1221.91c-.2,1.48-.28,2.8-.28,5.23v12.46c0,2.2.08,3.56.28,5.23h-5.83c.24-1.8.32-3.2.32-5.19v-12.54c0-2.2-.08-3.56-.32-5.19h5.83Z"/>
      <path class="cls-1" d="M494.01,1244.84c-.24-1.08-.4-1.56-1.2-3.56l-6.11-15.18c-.44-1.04-1.08-2.52-1.88-4.2h6.11c.12.88.48,2.24,1,3.72l4.07,11.58c.24.64.6,1.84.84,2.68.28-.88.6-1.88.88-2.68l4.07-11.58c.64-1.88.84-2.6,1-3.72h6.07c-.56,1.12-1.04,2.24-1.8,4.2l-6.15,15.18c-.8,2.04-.92,2.4-1.2,3.56h-5.71Z"/>
      <path class="cls-1" d="M515.06,1234.69c.2,2.2.56,3.32,1.48,4.48,1.16,1.44,2.96,2.24,4.99,2.24s3.64-.72,4.79-2c.48-.56.76-1,1.16-2.08l4.71,1.52c-.92,1.92-1.44,2.68-2.44,3.67-2.08,2.04-4.87,3.08-8.23,3.08-7.07,0-11.54-4.71-11.54-12.18s4.43-12.22,11.27-12.22c4.67,0,8.35,2.32,9.95,6.31.76,1.92,1.04,3.36,1.16,6.07,0,.08,0,.2.08,1.12h-17.38ZM527.24,1230.74c-.28-1.76-.76-2.84-1.76-3.83-1.08-1.08-2.44-1.6-4.31-1.6-3.12,0-5.39,2.08-5.99,5.43h12.06Z"/>
      <path class="cls-1" d="M550.93,1226.94c-1.68-.48-2.52-.64-3.56-.64-2,0-3.52.64-4.63,1.96-1,1.16-1.4,2.08-1.64,3.99v7.39c0,2.16.08,3.32.28,5.19h-5.71c.2-1.96.28-3.12.28-5.19v-12.54c0-2.44-.04-3.56-.28-5.19h5.43v3.76c1.44-2.84,3.91-4.19,7.51-4.19.96,0,1.92.12,3.71.44l-1.4,5.03Z"/>
      <path class="cls-1" d="M558.12,1237.65c.68,2.72,2.16,3.79,5.27,3.79s4.79-1.16,4.79-3.04c0-.8-.4-1.56-1.04-2-.76-.52-1-.56-4.2-1.28-3.16-.68-4.39-1.08-5.75-1.72-2.28-1.08-3.52-3-3.52-5.31,0-1.4.44-2.72,1.24-3.72,1.64-2.08,4.35-3.12,7.99-3.12,3.28,0,5.87.8,7.51,2.32,1.04,1,1.6,2,2.16,3.95l-5.27.68c-.44-2.2-1.8-3.16-4.39-3.16s-4.15,1.12-4.15,2.8c0,.76.44,1.44,1.24,1.88.88.44,1.72.68,3.99,1.2,4.07.88,5.71,1.44,7.03,2.44,1.56,1.12,2.32,2.76,2.32,4.95,0,1.64-.76,3.4-1.96,4.51-1.84,1.72-4.63,2.6-8.27,2.6-4.11,0-7.19-1.24-8.91-3.56-.72-.96-1.08-1.76-1.56-3.55l5.47-.68Z"/>
      <path class="cls-1" d="M583.2,1213.04v5.07h-5.87v-5.07h5.87ZM583.16,1221.91c-.2,1.48-.28,2.8-.28,5.23v12.46c0,2.2.08,3.56.28,5.23h-5.83c.24-1.8.32-3.2.32-5.19v-12.54c0-2.2-.08-3.56-.32-5.19h5.83Z"/>
      <path class="cls-1" d="M596.54,1215.76c-.16,1.4-.28,3.12-.28,4.91v1.24h1.68c1.88,0,2.76-.04,4.03-.24v4.71c-1.32-.2-2.08-.24-3.91-.24h-1.8v12.38c0,1.96.72,2.68,2.64,2.68,1.04,0,1.68-.2,2.92-.88l.72,4.23c-1.72.64-2.92.84-4.99.84-4.59,0-6.43-1.64-6.43-5.83v-13.42h-1.52c-1.48,0-2.24.04-3.56.24v-4.71c1.16.2,1.92.24,3.6.24h1.48v-1.24c0-1.72-.12-3.47-.28-4.91h5.71Z"/>
      <path class="cls-1" d="M607.25,1226.86c-1.76-3.95-1.8-4.07-2.28-4.95h6.07c.2,1.16.8,3.04,1.52,4.67l4.87,11.34,4.43-11.3c.96-2.44,1.28-3.44,1.52-4.71h5.95c-.24.52-.96,2.16-2.16,4.95l-9.11,21.37c-1.28,3.04-3.64,4.43-7.35,4.43-1.2,0-2.36-.12-4.19-.48l.92-4.55c1.12.48,1.88.68,2.8.68,1.4,0,2.56-.76,3.12-2l1.36-3.08-7.47-16.38Z"/>
      <path class="cls-1" d="M662.89,1234.69c.2,2.2.56,3.32,1.48,4.48,1.16,1.44,2.96,2.24,4.99,2.24s3.64-.72,4.79-2c.48-.56.76-1,1.16-2.08l4.71,1.52c-.92,1.92-1.44,2.68-2.44,3.67-2.08,2.04-4.87,3.08-8.23,3.08-7.07,0-11.54-4.71-11.54-12.18s4.43-12.22,11.27-12.22c4.67,0,8.35,2.32,9.95,6.31.76,1.92,1.04,3.36,1.16,6.07,0,.08,0,.2.08,1.12h-17.38ZM675.07,1230.74c-.28-1.76-.76-2.84-1.76-3.83-1.08-1.08-2.44-1.6-4.31-1.6-3.12,0-5.39,2.08-5.99,5.43h12.06Z"/>
      <path class="cls-1" d="M688.49,1234.93c.16,1.8.4,2.6,1.12,3.51,1.16,1.52,3.24,2.36,5.83,2.36,3.99,0,6.39-1.8,6.39-4.79,0-1.64-.76-3-2-3.68-1.2-.64-1.44-.68-6.95-1.96-3-.68-4.59-1.32-6.03-2.44-2.04-1.6-3.08-3.8-3.08-6.47,0-5.55,4.47-9.15,11.34-9.15,4.55,0,7.99,1.4,9.95,4.04,1,1.32,1.48,2.52,1.96,4.63l-5.71.68c-.24-1.36-.52-2.04-1.2-2.84-1.04-1.24-2.8-1.92-4.99-1.92-3.47,0-5.83,1.76-5.83,4.35,0,1.68.88,2.84,2.72,3.63.88.36,1.2.44,5.63,1.44,3.16.68,5.07,1.44,6.51,2.44,2.28,1.68,3.32,3.87,3.32,6.87,0,2.84-.88,5.15-2.52,6.79-2.12,2.04-5.27,3.04-9.55,3.04-3.28,0-6.47-.8-8.39-2.08-1.6-1.08-2.76-2.6-3.52-4.55-.36-.92-.52-1.68-.76-3.32l5.75-.6Z"/>
      <path class="cls-1" d="M715.69,1223.87c0,.44,0,.88-.04,1.4,2.2-2.8,4.55-3.91,8.15-3.91,3.2,0,5.75.96,7.59,2.8,2.12,2.16,3.16,5.15,3.16,9.19,0,7.35-4.04,11.78-10.83,11.78-3.52,0-6.15-1.24-8.07-3.83q0,.48.04,1.28c.04.28.04,1,.04,1.72v3.03c0,2.36.08,3.64.28,5.31h-5.63c.2-1.88.28-3.24.28-5.27v-20.09c0-2.32-.08-3.64-.28-5.35h5.31v1.96ZM722.84,1225.62c-3.95,0-6.95,3.28-6.95,7.55,0,4.55,2.96,7.75,7.11,7.75,3.91,0,6.35-2.96,6.35-7.67s-2.48-7.63-6.51-7.63Z"/>
      <path class="cls-1" d="M737.7,1233.41c0-7.43,4.63-12.18,11.9-12.18s11.82,4.71,11.82,12.1-4.67,12.26-11.78,12.26-11.94-4.71-11.94-12.18ZM742.86,1233.41c0,4.91,2.56,7.95,6.71,7.95s6.71-3,6.71-7.87c0-5.15-2.44-8.11-6.67-8.11s-6.75,3.03-6.75,8.03Z"/>
      <path class="cls-1" d="M779.17,1226.94c-1.68-.48-2.52-.64-3.56-.64-2,0-3.52.64-4.63,1.96-1,1.16-1.4,2.08-1.64,3.99v7.39c0,2.16.08,3.32.28,5.19h-5.71c.2-1.96.28-3.12.28-5.19v-12.54c0-2.44-.04-3.56-.28-5.19h5.43v3.76c1.44-2.84,3.91-4.19,7.51-4.19.96,0,1.92.12,3.71.44l-1.4,5.03Z"/>
      <path class="cls-1" d="M793.47,1215.76c-.16,1.4-.28,3.12-.28,4.91v1.24h1.68c1.88,0,2.76-.04,4.03-.24v4.71c-1.32-.2-2.08-.24-3.91-.24h-1.8v12.38c0,1.96.72,2.68,2.64,2.68,1.04,0,1.68-.2,2.92-.88l.72,4.23c-1.72.64-2.92.84-4.99.84-4.59,0-6.43-1.64-6.43-5.83v-13.42h-1.52c-1.48,0-2.24.04-3.56.24v-4.71c1.16.2,1.92.24,3.6.24h1.48v-1.24c0-1.72-.12-3.47-.28-4.91h5.71Z"/>
      <path class="cls-1" d="M806.09,1237.65c.68,2.72,2.16,3.79,5.27,3.79s4.79-1.16,4.79-3.04c0-.8-.4-1.56-1.04-2-.76-.52-1-.56-4.2-1.28-3.16-.68-4.39-1.08-5.75-1.72-2.28-1.08-3.52-3-3.52-5.31,0-1.4.44-2.72,1.24-3.72,1.64-2.08,4.35-3.12,7.99-3.12,3.28,0,5.87.8,7.51,2.32,1.04,1,1.6,2,2.16,3.95l-5.27.68c-.44-2.2-1.8-3.16-4.39-3.16s-4.15,1.12-4.15,2.8c0,.76.44,1.44,1.24,1.88.88.44,1.72.68,3.99,1.2,4.07.88,5.71,1.44,7.03,2.44,1.56,1.12,2.32,2.76,2.32,4.95,0,1.64-.76,3.4-1.96,4.51-1.84,1.72-4.63,2.6-8.27,2.6-4.11,0-7.19-1.24-8.91-3.56-.72-.96-1.08-1.76-1.56-3.55l5.47-.68Z"/>
      <path class="cls-1" d="M876.03,1239.77c2.4,3.24,2.84,3.79,3.99,5.07h-7.39c-.6-1.2-1.6-2.88-2.52-4.2l-7.95-11.18-4.35,4.35v5.87c0,2.36.08,3.47.36,5.15h-5.91c.24-1.8.32-3.04.32-5.15v-21.49c0-2.16-.08-3.47-.32-5.15h5.91c-.24,1.32-.36,2.88-.36,5.15v9.31l10.19-10.59c1.56-1.6,2.32-2.56,3.12-3.88h7.55c-1.16,1.16-2.48,2.44-4.23,4.23l-8.55,8.75,10.15,13.74Z"/>
      <path class="cls-1" d="M907.47,1244.84c-.24-1.32-.68-3.04-1.12-4.2l-1.6-4.35h-12.78l-1.6,4.35c-.72,1.92-.88,2.52-1.2,4.2h-6.55c.6-1.08,1.4-2.88,2.12-4.71l8.79-23.05c.76-2,1.08-3,1.28-4.04h6.95c.2.96.44,1.6,1.36,4.04l8.87,23.05c1,2.56,1.48,3.68,2.04,4.71h-6.55ZM899.04,1219.87c-.16-.44-.28-.92-.72-2.24q-.64,1.88-.76,2.24l-4.15,11.83h9.91l-4.27-11.83Z"/>
      <path class="cls-1" d="M938.1,1244.84c-.68-1.36-1.4-2.52-2.56-4.27l-10.31-15.54c-.76-1.2-1.76-2.92-2.72-4.79q.04.56.16,2.04c.04.76.12,2.56.12,3.48v13.1c0,2.68.12,4.55.32,5.99h-5.83c.2-1.32.32-3.32.32-6.03v-20.61c0-2.08-.08-3.51-.32-5.15h6.23c.36,1,1.08,2.2,2.44,4.23l10.11,15.22c.96,1.44,2.24,3.52,3.12,5.11-.16-1.56-.28-3.95-.28-5.63v-13.42c0-2.36-.08-4-.32-5.51h5.83c-.24,1.6-.32,3.08-.32,5.51v21.13c0,2.24.08,3.76.32,5.15h-6.31Z"/>
      <path class="cls-1" d="M952.4,1234.93c.16,1.8.4,2.6,1.12,3.51,1.16,1.52,3.24,2.36,5.83,2.36,3.99,0,6.39-1.8,6.39-4.79,0-1.64-.76-3-2-3.68-1.2-.64-1.44-.68-6.95-1.96-3-.68-4.59-1.32-6.03-2.44-2.04-1.6-3.08-3.8-3.08-6.47,0-5.55,4.47-9.15,11.34-9.15,4.55,0,7.99,1.4,9.95,4.04,1,1.32,1.48,2.52,1.96,4.63l-5.71.68c-.24-1.36-.52-2.04-1.2-2.84-1.04-1.24-2.8-1.92-4.99-1.92-3.47,0-5.83,1.76-5.83,4.35,0,1.68.88,2.84,2.72,3.63.88.36,1.2.44,5.63,1.44,3.16.68,5.07,1.44,6.51,2.44,2.28,1.68,3.32,3.87,3.32,6.87,0,2.84-.88,5.15-2.52,6.79-2.12,2.04-5.27,3.04-9.55,3.04-3.28,0-6.47-.8-8.39-2.08-1.6-1.08-2.76-2.6-3.52-4.55-.36-.92-.52-1.68-.76-3.32l5.75-.6Z"/>
      <path class="cls-1" d="M997.9,1244.84c-.24-1.32-.68-3.04-1.12-4.2l-1.6-4.35h-12.78l-1.6,4.35c-.72,1.92-.88,2.52-1.2,4.2h-6.55c.6-1.08,1.4-2.88,2.12-4.71l8.79-23.05c.76-2,1.08-3,1.28-4.04h6.95c.2.96.44,1.6,1.36,4.04l8.87,23.05c1,2.56,1.48,3.68,2.04,4.71h-6.55ZM989.47,1219.87c-.16-.44-.28-.92-.72-2.24q-.64,1.88-.76,2.24l-4.15,11.83h9.91l-4.27-11.83Z"/>
      <path class="cls-1" d="M1013.8,1213.04c-.24,1.52-.32,2.76-.32,5.15v21.49c0,2.36.08,3.63.32,5.15h-6.07c.24-1.52.32-2.8.32-5.15v-21.49c0-2.48-.08-3.55-.32-5.15h6.07Z"/>
    </g>
  </g>
</svg>

