<?xml version="1.0" encoding="UTF-8"?>
<svg id="_レイヤー_2" data-name="レイヤー 2" xmlns="http://www.w3.org/2000/svg" viewBox="0 0 1075.82 913.69">
  <defs>
    <style>
      .cls-1 {
        fill: #231815;
        stroke-width: 0px;
      }
    </style>
  </defs>
  <g id="_レイヤー_1-2" data-name="レイヤー 1">
    <g>
      <g>
        <polygon class="cls-1" points="8.6 908.71 38.5 856.56 1037.32 856.56 1067.22 908.71 8.6 908.71"/>
        <path class="cls-1" d="M1034.43,861.55l24.18,42.18H17.2l24.18-42.18h993.05M1040.21,851.58H35.61l-2.87,5.01-24.18,42.18-8.56,14.92h1075.82l-8.56-14.92-24.18-42.18-2.87-5.01h0Z"/>
      </g>
      <g>
        <path class="cls-1" d="M54.64,825.73l226.28-384.39,152.81,250.83h-238.48l-48.01,82.26h334l32.58,51.29H54.64ZM344.14,640.89l-62.92-97.63-56.35,97.63h119.27Z"/>
        <path class="cls-1" d="M280.99,450.91l143.99,236.35h-232.55l-53.74,92.09h339.86l26.33,41.46H63.23l217.75-369.91M216.36,645.8h136.8l-72.17-111.97-64.63,111.97M280.84,431.78l-8.33,14.14L54.76,815.83l-8.72,14.82h476.73l-9.59-15.1-26.34-41.46-2.9-4.56H155.8l42.27-72.43h244.4l-9.1-14.94-143.99-236.35-8.54-14.02h0ZM233.38,635.97l48.07-83.28,53.68,83.28h-101.74Z"/>
      </g>
      <g>
        <polygon class="cls-1" points="302.13 411.06 544.01 9.86 681.6 249.48 545.29 477.73 513.99 429.92 621.3 249.38 549.54 124.01 366.49 417.59 549.69 717.35 700.13 455.72 730.95 506.76 549.93 821.36 302.13 411.06"/>
        <path class="cls-1" d="M543.9,19.72l131.9,229.71-130.71,218.87-25.21-38.51,107.2-180.37-77.37-135.17-189.1,303.3,189.2,309.6,150.41-261.59,24.91,41.26-175.32,304.69-241.85-400.46L543.9,19.72M544.11,0l-8.77,14.55-235.94,391.34-3.12,5.17,3.12,5.17,241.85,400.46,8.77,14.52,8.46-14.7,175.32-304.69,2.94-5.11-3.05-5.05-24.91-41.26-8.77-14.53-8.46,14.71-142,246.97-177.19-289.94,176.98-283.86,66.16,115.58-104.22,175.35-3.19,5.36,3.42,5.22,25.21,38.51,8.76,13.38,8.2-13.73,130.71-218.87,3-5.03-2.92-5.08L552.58,14.74l-8.46-14.74h0Z"/>
      </g>
      <g>
        <polygon class="cls-1" points="586.89 825.82 618.96 773.64 930.77 773.64 701.43 384.47 547.03 651.93 408.35 422.77 545.51 194.76 575.55 246.76 471.25 426.85 546.76 548.03 701.35 280.25 992.55 776.11 1021.25 825.82 586.89 825.82"/>
        <path class="cls-1" d="M545.42,204.6l24.35,42.16-104.35,180.18,81.51,130.8,154.46-267.56,286.85,488.45,24.35,42.18h-416.76l25.92-42.18h317.77l-238.14-404.09-154.46,267.56-132.74-219.34,131.23-218.16M545.6,184.91l-8.74,14.54-131.23,218.16-3.11,5.17,3.12,5.16,132.74,219.34,8.76,14.47,8.46-14.65,145.89-252.71,220.55,374.25h-305.86l-2.93,4.76-25.92,42.18-9.36,15.24h451.96l-8.66-15-24.35-42.18-.02-.03-.02-.03-286.85-488.45-8.7-14.81-8.59,14.87-146.13,253.12-69.52-111.56,101.34-174.98,2.9-5-2.89-5.01-24.35-42.16-8.48-14.69h0Z"/>
      </g>
    </g>
  </g>
</svg>