<?xml version="1.0" encoding="UTF-8"?>
<svg id="_レイヤー_1" data-name="レイヤー 1" xmlns="http://www.w3.org/2000/svg" viewBox="0 0 1379.9 383.48">
  <defs>
    <style>
      .cls-1 {
        fill: #000000;
        stroke-width: 0px;
      }
    </style>
  </defs>
  <g>
    <polygon class="cls-1" points="447.93 377.21 437.78 359.51 436.57 357.41 434.15 357.41 17.37 357.41 14.95 357.41 13.74 359.51 3.59 377.21 0 383.48 7.22 383.48 444.3 383.48 451.52 383.48 447.93 377.21"/>
    <path class="cls-1" d="M211.9,348.62h7.51l-4.03-6.34-11.05-17.4-1.22-1.91H65.39l17.74-30.4h102.58l-3.82-6.27-60.43-99.2-3.58-5.88-3.49,5.94L22.98,342.4l-3.66,6.22h192.57ZM97.95,266.92l20.17-34.95,22.53,34.95h-42.7Z"/>
    <polygon class="cls-1" points="227.17 342.76 230.85 348.86 234.4 342.69 307.98 214.81 309.21 212.66 307.93 210.54 297.48 193.23 293.8 187.13 290.25 193.3 230.65 296.96 156.28 175.27 230.56 56.14 258.33 104.65 214.59 178.24 213.25 180.49 214.68 182.68 225.26 198.84 228.94 204.46 232.38 198.7 287.24 106.84 288.5 104.73 287.28 102.6 231.92 6.19 228.36 0 224.68 6.11 125.66 170.35 124.35 172.52 125.66 174.69 227.17 342.76"/>
    <polygon class="cls-1" points="200.23 179.11 242.76 105.67 243.98 103.57 242.77 101.47 232.55 83.77 228.99 77.61 225.32 83.71 170.24 175.27 168.93 177.44 170.24 179.6 225.95 271.66 229.63 277.74 233.18 271.59 294.41 165.53 386.97 322.6 260.95 322.6 258.6 322.6 257.37 324.6 246.49 342.3 242.56 348.69 250.07 348.69 424.98 348.69 432.25 348.69 428.62 342.4 418.4 324.7 297.99 119.67 294.34 113.45 290.74 119.69 229.41 225.93 200.23 179.11"/>
  </g>
  <g>
    <g>
      <path class="cls-1" d="M795.52,263.35l24.89,13.91h117.18l24.89-13.91v-27.83h-125.22v-20.87h100.33l24.89-13.91v-90.44h-166.97v153.05ZM837.26,152.04h83.48v20.87h-83.48v-20.87Z"/>
      <polygon class="cls-1" points="983.36 214.65 1108.58 214.65 1108.58 235.53 983.36 235.53 983.36 263.35 1008.25 277.27 1125.43 277.27 1150.32 263.35 1150.32 172.91 1025.1 172.91 1025.1 152.04 1125.43 152.04 1150.32 138.13 1150.32 110.3 983.36 110.3 983.36 214.65"/>
      <polygon class="cls-1" points="732.91 235.53 718.99 235.53 503.33 235.53 503.33 110.3 461.59 110.3 461.59 263.35 486.48 277.27 774.65 277.27 774.65 110.3 732.91 110.3 732.91 235.53"/>
      <polygon class="cls-1" points="1290.95 184.31 1353.05 110.3 1298.55 110.3 1268.74 145.84 1240.18 179.87 1212.94 212.34 1212.94 124.21 1188.04 110.3 1171.19 110.3 1171.19 263.35 1196.09 277.27 1212.95 277.27 1262.4 218.34 1331.7 339.88 1379.9 339.88 1290.95 184.31"/>
    </g>
    <g>
      <path class="cls-1" d="M818.17,290.04c-.19,1.18-.26,2.33-.26,4.35v11.35c0,6.62-3.93,10.33-10.9,10.33-3.55,0-6.49-1.09-8.25-3.01-1.63-1.76-2.4-4.16-2.4-7.35v-11.29c0-1.98-.06-3.23-.26-4.38h4.76c-.19,1.09-.26,2.3-.26,4.38v11.29c0,4.32,2.24,6.59,6.55,6.59s6.49-2.27,6.49-6.62v-11.25c0-2.05-.06-3.2-.26-4.38h4.76Z"/>
      <path class="cls-1" d="M821.11,315.49c.19-1.37.26-2.37.26-4.16v-10.04c0-1.76-.06-2.85-.26-4.16h4.35v1.7c0,.48,0,.58-.06,1.37,1.95-2.49,3.64-3.39,6.52-3.39,2.46,0,4.28.8,5.43,2.37.77,1.06,1.09,2.33,1.09,4.48v7.67c0,1.76.06,2.97.26,4.16h-4.64c.16-1.44.22-2.53.22-4.16v-7.1c0-1.34-.16-2.21-.54-2.81-.51-.83-1.47-1.31-2.69-1.31-2.3,0-4.19,1.6-5.59,4.76v6.46c0,1.57.06,2.78.26,4.16h-4.6Z"/>
      <path class="cls-1" d="M846.68,290.04v4.06h-4.7v-4.06h4.7ZM846.65,297.14c-.16,1.18-.22,2.24-.22,4.19v9.97c0,1.76.06,2.85.22,4.19h-4.67c.19-1.44.26-2.56.26-4.16v-10.04c0-1.76-.06-2.85-.26-4.16h4.67Z"/>
      <path class="cls-1" d="M856.95,315.49c-.19-.86-.32-1.25-.96-2.85l-4.89-12.15c-.35-.83-.86-2.01-1.5-3.36h4.89c.1.7.38,1.79.8,2.97l3.26,9.27c.19.51.48,1.47.67,2.14.22-.7.48-1.5.7-2.14l3.26-9.27c.51-1.5.67-2.08.8-2.97h4.86c-.45.9-.83,1.79-1.44,3.36l-4.92,12.15c-.64,1.63-.74,1.92-.96,2.85h-4.57Z"/>
      <path class="cls-1" d="M873.79,307.37c.16,1.76.45,2.65,1.18,3.58.93,1.15,2.37,1.79,4,1.79s2.91-.58,3.84-1.6c.38-.45.61-.8.93-1.66l3.77,1.21c-.73,1.53-1.15,2.14-1.95,2.94-1.66,1.63-3.9,2.46-6.59,2.46-5.66,0-9.24-3.77-9.24-9.75s3.55-9.78,9.02-9.78c3.74,0,6.68,1.85,7.96,5.05.61,1.53.83,2.69.93,4.86,0,.06,0,.16.06.89h-13.91ZM883.54,304.21c-.22-1.41-.61-2.27-1.41-3.07-.86-.86-1.95-1.28-3.45-1.28-2.49,0-4.32,1.66-4.8,4.35h9.65Z"/>
      <path class="cls-1" d="M902.5,301.17c-1.34-.38-2.01-.51-2.85-.51-1.6,0-2.81.51-3.71,1.57-.8.93-1.12,1.66-1.31,3.2v5.91c0,1.73.06,2.65.22,4.16h-4.57c.16-1.57.22-2.49.22-4.16v-10.04c0-1.95-.03-2.85-.22-4.16h4.35v3.01c1.15-2.27,3.13-3.36,6.01-3.36.77,0,1.53.1,2.97.35l-1.12,4.03Z"/>
      <path class="cls-1" d="M908.25,309.74c.54,2.17,1.73,3.04,4.22,3.04s3.84-.93,3.84-2.43c0-.64-.32-1.25-.83-1.6-.61-.42-.8-.45-3.36-1.02-2.53-.54-3.52-.86-4.6-1.37-1.82-.86-2.81-2.4-2.81-4.25,0-1.12.35-2.17.99-2.97,1.31-1.66,3.48-2.49,6.39-2.49,2.62,0,4.7.64,6.01,1.85.83.8,1.28,1.6,1.73,3.16l-4.22.54c-.35-1.76-1.44-2.53-3.52-2.53s-3.33.89-3.33,2.24c0,.61.35,1.15.99,1.5.7.35,1.37.54,3.2.96,3.26.7,4.57,1.15,5.63,1.95,1.25.89,1.85,2.21,1.85,3.96,0,1.31-.61,2.72-1.57,3.61-1.47,1.37-3.71,2.08-6.62,2.08-3.29,0-5.75-.99-7.13-2.85-.58-.77-.86-1.41-1.25-2.84l4.38-.54Z"/>
      <path class="cls-1" d="M928.33,290.04v4.06h-4.7v-4.06h4.7ZM928.3,297.14c-.16,1.18-.22,2.24-.22,4.19v9.97c0,1.76.06,2.85.22,4.19h-4.67c.19-1.44.26-2.56.26-4.16v-10.04c0-1.76-.06-2.85-.26-4.16h4.67Z"/>
      <path class="cls-1" d="M939.01,292.22c-.13,1.12-.22,2.49-.22,3.93v.99h1.34c1.5,0,2.21-.03,3.23-.19v3.77c-1.05-.16-1.66-.19-3.13-.19h-1.44v9.91c0,1.57.58,2.14,2.11,2.14.83,0,1.34-.16,2.33-.7l.58,3.39c-1.37.51-2.33.67-4,.67-3.68,0-5.15-1.31-5.15-4.67v-10.74h-1.21c-1.18,0-1.79.03-2.85.19v-3.77c.93.16,1.53.19,2.88.19h1.18v-.99c0-1.37-.1-2.78-.22-3.93h4.57Z"/>
      <path class="cls-1" d="M947.57,301.11c-1.41-3.16-1.44-3.26-1.82-3.96h4.86c.16.93.64,2.43,1.21,3.74l3.9,9.08,3.55-9.05c.77-1.95,1.02-2.75,1.21-3.77h4.76c-.19.42-.77,1.73-1.73,3.96l-7.29,17.1c-1.02,2.43-2.91,3.55-5.88,3.55-.96,0-1.89-.1-3.36-.38l.73-3.64c.9.38,1.5.54,2.24.54,1.12,0,2.05-.61,2.49-1.6l1.09-2.46-5.98-13.11Z"/>
      <path class="cls-1" d="M992.1,307.37c.16,1.76.45,2.65,1.18,3.58.93,1.15,2.37,1.79,4,1.79s2.91-.58,3.84-1.6c.38-.45.61-.8.93-1.66l3.77,1.21c-.73,1.53-1.15,2.14-1.95,2.94-1.66,1.63-3.9,2.46-6.59,2.46-5.66,0-9.24-3.77-9.24-9.75s3.55-9.78,9.02-9.78c3.74,0,6.68,1.85,7.96,5.05.61,1.53.83,2.69.93,4.86,0,.06,0,.16.06.89h-13.91ZM1001.85,304.21c-.22-1.41-.61-2.27-1.41-3.07-.86-.86-1.95-1.28-3.45-1.28-2.49,0-4.32,1.66-4.8,4.35h9.65Z"/>
      <path class="cls-1" d="M1012.59,307.56c.13,1.44.32,2.08.9,2.81.93,1.21,2.59,1.89,4.67,1.89,3.2,0,5.12-1.44,5.12-3.84,0-1.31-.61-2.4-1.6-2.94-.96-.51-1.15-.54-5.56-1.57-2.4-.54-3.68-1.06-4.83-1.95-1.63-1.28-2.46-3.04-2.46-5.18,0-4.44,3.58-7.32,9.08-7.32,3.64,0,6.39,1.12,7.96,3.23.8,1.05,1.18,2.01,1.57,3.71l-4.57.54c-.19-1.09-.42-1.63-.96-2.27-.83-.99-2.24-1.53-4-1.53-2.78,0-4.67,1.41-4.67,3.49,0,1.34.7,2.27,2.17,2.91.7.29.96.35,4.51,1.15,2.53.54,4.06,1.15,5.21,1.95,1.82,1.34,2.65,3.1,2.65,5.5,0,2.27-.7,4.12-2.01,5.44-1.69,1.63-4.22,2.43-7.64,2.43-2.62,0-5.18-.64-6.71-1.66-1.28-.86-2.21-2.08-2.81-3.64-.29-.74-.42-1.34-.61-2.65l4.6-.48Z"/>
      <path class="cls-1" d="M1034.36,298.71c0,.35,0,.7-.03,1.12,1.76-2.24,3.64-3.13,6.52-3.13,2.56,0,4.6.77,6.07,2.24,1.69,1.73,2.53,4.13,2.53,7.35,0,5.88-3.23,9.43-8.66,9.43-2.81,0-4.92-.99-6.46-3.07q0,.38.03,1.02c.03.22.03.8.03,1.38v2.43c0,1.89.06,2.91.22,4.25h-4.51c.16-1.5.22-2.59.22-4.22v-16.08c0-1.85-.06-2.91-.22-4.28h4.25v1.57ZM1040.09,300.11c-3.16,0-5.56,2.62-5.56,6.04,0,3.64,2.37,6.2,5.69,6.2,3.13,0,5.08-2.37,5.08-6.14s-1.98-6.11-5.21-6.11Z"/>
      <path class="cls-1" d="M1051.98,306.35c0-5.95,3.71-9.75,9.53-9.75s9.46,3.77,9.46,9.69-3.74,9.81-9.43,9.81-9.56-3.77-9.56-9.75ZM1056.1,306.35c0,3.93,2.05,6.36,5.37,6.36s5.37-2.4,5.37-6.3c0-4.12-1.95-6.49-5.34-6.49s-5.4,2.43-5.4,6.43Z"/>
      <path class="cls-1" d="M1085.16,301.17c-1.34-.38-2.01-.51-2.85-.51-1.6,0-2.81.51-3.71,1.57-.8.93-1.12,1.66-1.31,3.2v5.91c0,1.73.06,2.65.22,4.16h-4.57c.16-1.57.22-2.49.22-4.16v-10.04c0-1.95-.03-2.85-.22-4.16h4.35v3.01c1.15-2.27,3.13-3.36,6.01-3.36.77,0,1.53.1,2.97.35l-1.12,4.03Z"/>
      <path class="cls-1" d="M1096.6,292.22c-.13,1.12-.22,2.49-.22,3.93v.99h1.34c1.5,0,2.21-.03,3.23-.19v3.77c-1.05-.16-1.66-.19-3.13-.19h-1.44v9.91c0,1.57.58,2.14,2.11,2.14.83,0,1.34-.16,2.33-.7l.58,3.39c-1.37.51-2.33.67-4,.67-3.68,0-5.15-1.31-5.15-4.67v-10.74h-1.21c-1.18,0-1.79.03-2.85.19v-3.77c.93.16,1.53.19,2.88.19h1.18v-.99c0-1.37-.1-2.78-.22-3.93h4.57Z"/>
      <path class="cls-1" d="M1106.7,309.74c.54,2.17,1.73,3.04,4.22,3.04s3.84-.93,3.84-2.43c0-.64-.32-1.25-.83-1.6-.61-.42-.8-.45-3.36-1.02-2.53-.54-3.52-.86-4.6-1.37-1.82-.86-2.81-2.4-2.81-4.25,0-1.12.35-2.17.99-2.97,1.31-1.66,3.48-2.49,6.39-2.49,2.62,0,4.7.64,6.01,1.85.83.8,1.28,1.6,1.73,3.16l-4.22.54c-.35-1.76-1.44-2.53-3.52-2.53s-3.33.89-3.33,2.24c0,.61.35,1.15.99,1.5.7.35,1.37.54,3.2.96,3.26.7,4.57,1.15,5.63,1.95,1.25.89,1.85,2.21,1.85,3.96,0,1.31-.61,2.72-1.57,3.61-1.47,1.37-3.71,2.08-6.62,2.08-3.29,0-5.75-.99-7.13-2.85-.58-.77-.86-1.41-1.25-2.84l4.38-.54Z"/>
      <path class="cls-1" d="M1162.68,311.43c1.92,2.59,2.27,3.04,3.2,4.06h-5.91c-.48-.96-1.28-2.3-2.01-3.36l-6.36-8.95-3.49,3.48v4.7c0,1.89.06,2.78.29,4.12h-4.73c.19-1.44.26-2.43.26-4.12v-17.2c0-1.73-.06-2.78-.26-4.12h4.73c-.19,1.06-.29,2.3-.29,4.12v7.45l8.15-8.47c1.25-1.28,1.85-2.05,2.49-3.1h6.04c-.93.93-1.98,1.95-3.39,3.39l-6.84,7,8.12,11Z"/>
      <path class="cls-1" d="M1187.84,315.49c-.19-1.06-.54-2.43-.9-3.36l-1.28-3.48h-10.23l-1.28,3.48c-.58,1.53-.7,2.01-.96,3.36h-5.24c.48-.86,1.12-2.3,1.69-3.77l7.03-18.45c.61-1.6.86-2.4,1.02-3.23h5.56c.16.77.35,1.28,1.09,3.23l7.1,18.45c.8,2.05,1.18,2.94,1.63,3.77h-5.24ZM1181.09,295.51c-.13-.35-.22-.73-.58-1.79q-.51,1.5-.61,1.79l-3.32,9.46h7.93l-3.42-9.46Z"/>
      <path class="cls-1" d="M1212.36,315.49c-.54-1.09-1.12-2.01-2.05-3.42l-8.25-12.44c-.61-.96-1.41-2.33-2.17-3.84q.03.45.13,1.63c.03.61.1,2.05.1,2.78v10.49c0,2.14.1,3.64.26,4.8h-4.67c.16-1.06.26-2.65.26-4.83v-16.5c0-1.66-.06-2.81-.26-4.12h4.99c.29.8.86,1.76,1.95,3.39l8.09,12.18c.77,1.15,1.79,2.81,2.49,4.09-.13-1.25-.22-3.16-.22-4.51v-10.74c0-1.89-.06-3.2-.26-4.41h4.67c-.19,1.28-.26,2.46-.26,4.41v16.91c0,1.79.06,3.01.26,4.12h-5.05Z"/>
      <path class="cls-1" d="M1223.8,307.56c.13,1.44.32,2.08.9,2.81.93,1.21,2.59,1.89,4.67,1.89,3.2,0,5.12-1.44,5.12-3.84,0-1.31-.61-2.4-1.6-2.94-.96-.51-1.15-.54-5.56-1.57-2.4-.54-3.68-1.06-4.83-1.95-1.63-1.28-2.46-3.04-2.46-5.18,0-4.44,3.58-7.32,9.08-7.32,3.64,0,6.39,1.12,7.96,3.23.8,1.05,1.18,2.01,1.57,3.71l-4.57.54c-.19-1.09-.42-1.63-.96-2.27-.83-.99-2.24-1.53-4-1.53-2.78,0-4.67,1.41-4.67,3.49,0,1.34.7,2.27,2.17,2.91.7.29.96.35,4.51,1.15,2.53.54,4.06,1.15,5.21,1.95,1.82,1.34,2.65,3.1,2.65,5.5,0,2.27-.7,4.12-2.01,5.44-1.69,1.63-4.22,2.43-7.64,2.43-2.62,0-5.18-.64-6.71-1.66-1.28-.86-2.21-2.08-2.81-3.64-.29-.74-.42-1.34-.61-2.65l4.6-.48Z"/>
      <path class="cls-1" d="M1260.21,315.49c-.19-1.06-.54-2.43-.9-3.36l-1.28-3.48h-10.23l-1.28,3.48c-.58,1.53-.7,2.01-.96,3.36h-5.24c.48-.86,1.12-2.3,1.69-3.77l7.03-18.45c.61-1.6.86-2.4,1.02-3.23h5.56c.16.77.35,1.28,1.09,3.23l7.1,18.45c.8,2.05,1.18,2.94,1.63,3.77h-5.24ZM1253.47,295.51c-.13-.35-.22-.73-.58-1.79q-.51,1.5-.61,1.79l-3.32,9.46h7.93l-3.42-9.46Z"/>
      <path class="cls-1" d="M1272.93,290.04c-.19,1.21-.26,2.21-.26,4.12v17.2c0,1.89.06,2.91.26,4.12h-4.86c.19-1.21.26-2.24.26-4.12v-17.2c0-1.98-.06-2.84-.26-4.12h4.86Z"/>
    </g>
  </g>
</svg>

